PathFileType	4	(X/Y/Z)	D:\Share\Shared_Data\Ergonomics\Sit To Stand Pertubation\S2\Unperturbed.trc
DataRate	CameraRate	NumFrames	NumMarkers	Units	OrigDataRate	OrigDataStartFrame	OrigNumFrames	
100	100	9	18	m	100	3251	241
Frame#	Time	R_Toe			R_ASIS			R_Pelvis			V_Sacral			L_Pelvis			L_ASIS			Clavical			R_Acromium			L_Acromium			Sternum			Torso			R_Thigh_Med			R_Thigh_Lat			R_Thigh			R_Shank_Med			R_Shank_Lat			R_Shank			R_Heel			
		X1	Y1	Z1	X2	Y2	Z2	X3	Y3	Z3	X4	Y4	Z4	X5	Y5	Z5	X6	Y6	Z6	X7	Y7	Z7	X8	Y8	Z8	X9	Y9	Z9	X10	Y10	Z10	X11	Y11	Z11	X12	Y12	Z12	X13	Y13	Z13	X14	Y14	Z14	X15	Y15	Z15	X16	Y16	Z16	X17	Y17	Z17	X18	Y18	Z18	

3251	32.5	0.44131097	0.066249825	0.14540123	-0.029828308	0.64745947	0.14519205	-0.10752638	0.63543719	0.18468266	-0.23035703	0.56310632	0.028693945	-0.14581645	0.62576196	-0.15262166	-0.053445545	0.6517254	-0.12365186	-0.037429775	1.0235905	0.0095683508	-0.131946	1.0455916	0.21392325	-0.14110217	1.0522783	-0.17312849	0.0091370859	0.86596503	0.0087400484	-0.028490602	0.98351355	-0.10573209	0.38517856	0.50340247	0.12980296	0.35527899	0.50918817	0.23370276	0.19468443	0.62112085	0.18013644	0.30483801	0.10940756	0.1113215	0.28645071	0.101741	0.20366591	0.34417786	0.35711884	0.24437225	0.20405638	0.062062515	0.15265065
3252	32.51	0.44130841	0.066258209	0.14540253	-0.029693253	0.64741241	0.14514552	-0.10745347	0.63550403	0.18462683	-0.2303299	0.56325684	0.028709667	-0.14572711	0.6258783	-0.15261171	-0.053289238	0.65169714	-0.12366613	-0.035835503	1.0233507	0.0094761324	-0.13029439	1.0457078	0.21379788	-0.13935933	1.052274	-0.17326172	0.010154379	0.86553809	0.0087126818	-0.027019817	0.98316956	-0.10581778	0.38514603	0.50339078	0.1297179	0.35528525	0.50921524	0.23362814	0.19469609	0.62114661	0.18009151	0.30483362	0.10941212	0.11132171	0.28644678	0.10175191	0.20365811	0.34417627	0.35714233	0.24432784	0.20405418	0.062060551	0.15265224
3253	32.52	0.44130585	0.066266396	0.14540295	-0.02953791	0.64736292	0.14509715	-0.10741029	0.63556683	0.18455974	-0.23030707	0.56341827	0.028727482	-0.14564037	0.626008	-0.15260197	-0.053132584	0.65166528	-0.12368279	-0.034138863	1.0230964	0.0093799276	-0.12853648	1.0458196	0.2136631	-0.13751907	1.0522675	-0.17340187	0.011238792	0.86508997	0.008681284	-0.025462664	0.98280426	-0.1059119	0.38511053	0.50337994	0.12962709	0.35529486	0.50924109	0.23354649	0.19471086	0.62117358	0.18004768	0.30482944	0.1094162	0.11132073	0.28644418	0.10176272	0.2036501	0.34417715	0.3571658	0.24427692	0.20405251	0.06205698	0.15265361
3254	32.53	0.44130295	0.06627433	0.14540303	-0.029357454	0.64731122	0.14504958	-0.10739533	0.63562653	0.18448376	-0.23028957	0.56359052	0.028749857	-0.14555544	0.62615131	-0.15259067	-0.052977074	0.65162939	-0.12370316	-0.03233672	1.0228264	0.0092792368	-0.12666784	1.0459291	0.21352016	-0.13557726	1.0522606	-0.17354788	0.012391108	0.86461932	0.0086430874	-0.023815334	0.98241882	-0.10601236	0.3850704	0.50336887	0.12952802	0.35530655	0.50926566	0.23345557	0.19472754	0.62120172	0.180004	0.30482492	0.10941956	0.11131796	0.28644302	0.10177358	0.20364143	0.3441795	0.35719067	0.24421979	0.20405124	0.062052685	0.15265587
3255	32.54	0.44129956	0.066282104	0.14540303	-0.029149437	0.64725854	0.14500439	-0.10739251	0.63568744	0.18440352	-0.23027704	0.56377472	0.028779402	-0.14546953	0.62630792	-0.15257634	-0.052824333	0.65158929	-0.12372859	-0.03042625	1.0225395	0.0091726227	-0.12468314	1.0460393	0.21337154	-0.13352878	1.0522563	-0.17369833	0.013611615	0.86412408	0.008595129	-0.022074018	0.98201447	-0.10611805	0.38502393	0.50335632	0.12941798	0.35531845	0.50928897	0.23335303	0.19474451	0.62123096	0.17995862	0.30481903	0.10942213	0.11131284	0.28644339	0.10178486	0.20363147	0.3441825	0.35721823	0.24415669	0.20405009	0.062048576	0.15265981
3256	32.55	0.44129535	0.066289894	0.14540285	-0.028914511	0.64720636	0.14496162	-0.10737054	0.63575708	0.18432594	-0.2302681	0.56397247	0.028818216	-0.14537727	0.62647565	-0.15255861	-0.052674885	0.65154468	-0.12375954	-0.028404049	1.0222338	0.0090582705	-0.12257674	1.0461536	0.21321921	-0.13136803	1.0522563	-0.1738515	0.014900844	0.86360199	0.0085353746	-0.020234863	0.98159161	-0.10622969	0.38496945	0.50334192	0.12929431	0.35532858	0.50931119	0.23323697	0.19476003	0.62126099	0.17990921	0.30481058	0.10942397	0.1113051	0.28644507	0.10179697	0.20361957	0.34418506	0.35724982	0.24408731	0.20404858	0.06204504	0.15266519
3257	32.56	0.44129031	0.066297928	0.14540222	-0.028654966	0.64715704	0.14492067	-0.10729513	0.63584351	0.18425885	-0.23026065	0.5641864	0.028867561	-0.14527194	0.62665179	-0.15253799	-0.05252729	0.65149561	-0.12379575	-0.026265289	1.0219078	0.0089350977	-0.12034262	1.0462738	0.21306392	-0.12908932	1.0522614	-0.17400522	0.016260187	0.86305103	0.0084635315	-0.01829357	0.98114935	-0.10634905	0.38490601	0.50332578	0.12915454	0.35533475	0.50933264	0.23310565	0.19477228	0.6212915	0.17985353	0.30479855	0.10942511	0.11129459	0.28644791	0.10181023	0.20360516	0.34418607	0.35728635	0.24401079	0.20404637	0.062042011	0.15267152
3258	32.57	0.44128415	0.066306343	0.14540077	-0.028372566	0.64711285	0.14488129	-0.10713963	0.63595203	0.1842086	-0.23025247	0.56441852	0.028927294	-0.14514954	0.62683789	-0.15251451	-0.052377884	0.6514422	-0.1238362	-0.024003756	1.0215596	0.0088029251	-0.11797412	1.0464014	0.2129062	-0.12668696	1.0522715	-0.17415778	0.017692158	0.8624693	0.008381135	-0.016244959	0.98068573	-0.10647662	0.38483316	0.50330823	0.1289973	0.35533484	0.50935406	0.2329577	0.19477968	0.62132275	0.17978961	0.30478229	0.10942542	0.11128134	0.28645135	0.10182472	0.20358789	0.34418378	0.35732822	0.24392604	0.20404323	0.062038883	0.15267831
3259	32.58	0.44127689	0.066315277	0.14539839	-0.028067518	0.64707556	0.14484381	-0.10688521	0.63608575	0.18417838	-0.2302413	0.56467035	0.028995268	-0.14501135	0.62704187	-0.15248639	-0.052221157	0.65138446	-0.12387947	-0.021613171	1.0211879	0.0086617718	-0.11546378	1.0465364	0.21274677	-0.12415472	1.0522863	-0.1743091	0.019200289	0.8618551	0.0082904406	-0.014083029	0.98019867	-0.10661047	0.38475034	0.50329001	0.12882224	0.35532681	0.50937616	0.23279196	0.19478078	0.62135498	0.17971609	0.30476193	0.10942466	0.11126566	0.28645465	0.10184025	0.2035676	0.34417578	0.35737527	0.24383202	0.20403918	0.062034523	0.15268489
